<svg xmlns="http://www.w3.org/2000/svg" width="512" height="512" viewBox="0 0 512 512" fill="none"><defs><linearGradient id="bg" x1="64" y1="48" x2="448" y2="464"><stop stop-color="#FFFFFF"/><stop offset="1" stop-color="#EEF6FF"/></linearGradient><linearGradient id="b" x1="118" y1="128" x2="394" y2="386"><stop stop-color="#60A5FA"/><stop offset="1" stop-color="#2563EB"/></linearGradient><filter id="s"><feDropShadow dx="0" dy="18" stdDeviation="22" flood-color="#1D4ED8" flood-opacity="0.16"/></filter></defs><rect x="38" y="38" width="436" height="436" rx="112" fill="url(#bg)" filter="url(#s)"/><rect x="62" y="62" width="388" height="388" rx="92" stroke="#2563EB" stroke-opacity="0.16" stroke-width="4"/><path d="M168 176H344M168 256H344M168 336H344" stroke="#BFDBFE" stroke-width="18" stroke-linecap="round"/><circle cx="168" cy="176" r="34" fill="#FFFFFF" stroke="#2563EB" stroke-width="14"/><circle cx="344" cy="176" r="34" fill="#FFFFFF" stroke="#0EA5E9" stroke-width="14"/><circle cx="168" cy="336" r="34" fill="#FFFFFF" stroke="#0EA5E9" stroke-width="14"/><circle cx="344" cy="336" r="34" fill="#FFFFFF" stroke="#2563EB" stroke-width="14"/><circle cx="256" cy="256" r="48" fill="url(#b)"/><path d="M256 226V286M226 256H286" stroke="#FFFFFF" stroke-width="16" stroke-linecap="round"/><path d="M202 202L222 222M310 202L290 222M202 310L222 290M310 310L290 290" stroke="#2563EB" stroke-width="10" stroke-linecap="round"/></svg>