<svg xmlns="http://www.w3.org/2000/svg" width="512" height="512" viewBox="0 0 512 512" fill="none">
<defs><linearGradient id="bg" x1="64" y1="48" x2="448" y2="464" gradientUnits="userSpaceOnUse"><stop stop-color="#FFFFFF"/><stop offset="1" stop-color="#EAF4FF"/></linearGradient><linearGradient id="b" x1="126" y1="124" x2="390" y2="388" gradientUnits="userSpaceOnUse"><stop stop-color="#38BDF8"/><stop offset="1" stop-color="#1D4ED8"/></linearGradient><filter id="s" x="0" y="0" width="512" height="512"><feDropShadow dx="0" dy="18" stdDeviation="22" flood-color="#1D4ED8" flood-opacity="0.18"/></filter></defs>
<rect x="38" y="38" width="436" height="436" rx="112" fill="url(#bg)" filter="url(#s)"/><rect x="62" y="62" width="388" height="388" rx="92" stroke="#2563EB" stroke-opacity="0.16" stroke-width="4"/>
<path d="M128 334H386" stroke="#DBEAFE" stroke-width="24" stroke-linecap="round"/>
<path d="M142 322C184 294 208 328 242 285C276 242 298 270 330 214C348 182 367 169 390 154" stroke="url(#b)" stroke-width="30" stroke-linecap="round" stroke-linejoin="round"/>
<circle cx="146" cy="322" r="22" fill="#FFFFFF" stroke="#2563EB" stroke-width="12"/><circle cx="244" cy="284" r="22" fill="#FFFFFF" stroke="#0EA5E9" stroke-width="12"/><circle cx="332" cy="214" r="22" fill="#FFFFFF" stroke="#2563EB" stroke-width="12"/><circle cx="390" cy="154" r="22" fill="#FFFFFF" stroke="#0EA5E9" stroke-width="12"/>
<path d="M138 388H246" stroke="#93C5FD" stroke-width="18" stroke-linecap="round"/><path d="M138 218H206" stroke="#BFDBFE" stroke-width="16" stroke-linecap="round"/><path d="M138 184H254" stroke="#BFDBFE" stroke-width="16" stroke-linecap="round"/>
<path d="M327 328C327 305 345 288 370 288C394 288 414 305 414 328C414 352 394 368 370 368C345 368 327 352 327 328Z" fill="#EFF6FF" stroke="#2563EB" stroke-width="12"/><path d="M350 328H390M370 308V348" stroke="#2563EB" stroke-width="10" stroke-linecap="round"/>
</svg>
