<svg xmlns="http://www.w3.org/2000/svg" width="512" height="512" viewBox="0 0 512 512" fill="none"><defs><linearGradient id="bg" x1="64" y1="48" x2="448" y2="464"><stop stop-color="#FFFFFF"/><stop offset="1" stop-color="#EFF6FF"/></linearGradient><linearGradient id="b" x1="120" y1="124" x2="392" y2="392"><stop stop-color="#38BDF8"/><stop offset="1" stop-color="#1E40AF"/></linearGradient><filter id="s"><feDropShadow dx="0" dy="18" stdDeviation="22" flood-color="#1E40AF" flood-opacity="0.16"/></filter></defs><rect x="38" y="38" width="436" height="436" rx="112" fill="url(#bg)" filter="url(#s)"/><rect x="62" y="62" width="388" height="388" rx="92" stroke="#1D4ED8" stroke-opacity="0.16" stroke-width="4"/><path d="M256 118L360 162V248C360 314 318 366 256 394C194 366 152 314 152 248V162L256 118Z" fill="#EFF6FF" stroke="#2563EB" stroke-width="16" stroke-linejoin="round"/><path d="M206 284C230 250 250 280 272 238C286 212 306 204 330 188" stroke="url(#b)" stroke-width="22" stroke-linecap="round" stroke-linejoin="round"/><circle cx="206" cy="284" r="15" fill="#FFFFFF" stroke="#2563EB" stroke-width="9"/><circle cx="272" cy="238" r="15" fill="#FFFFFF" stroke="#0EA5E9" stroke-width="9"/><circle cx="330" cy="188" r="15" fill="#FFFFFF" stroke="#2563EB" stroke-width="9"/><path d="M222 326H290" stroke="#93C5FD" stroke-width="16" stroke-linecap="round"/><path d="M256 160V188M256 288V318" stroke="#1D4ED8" stroke-width="12" stroke-linecap="round"/></svg>