<svg xmlns="http://www.w3.org/2000/svg" width="512" height="512" viewBox="0 0 512 512" fill="none"><defs><linearGradient id="bg" x1="64" y1="48" x2="448" y2="464"><stop stop-color="#FFFFFF"/><stop offset="1" stop-color="#ECFDF5"/></linearGradient><linearGradient id="b" x1="126" y1="126" x2="386" y2="386"><stop stop-color="#2DD4BF"/><stop offset="1" stop-color="#2563EB"/></linearGradient><filter id="s"><feDropShadow dx="0" dy="18" stdDeviation="22" flood-color="#0F766E" flood-opacity="0.16"/></filter></defs><rect x="38" y="38" width="436" height="436" rx="112" fill="url(#bg)" filter="url(#s)"/><rect x="62" y="62" width="388" height="388" rx="92" stroke="#0F766E" stroke-opacity="0.16" stroke-width="4"/><rect x="154" y="154" width="204" height="204" rx="44" fill="#F0FDFA" stroke="#2563EB" stroke-width="16"/><rect x="202" y="202" width="108" height="108" rx="26" fill="url(#b)"/><path d="M124 186H154M124 256H154M124 326H154M358 186H388M358 256H388M358 326H388M186 124V154M256 124V154M326 124V154M186 358V388M256 358V388M326 358V388" stroke="#0EA5E9" stroke-width="14" stroke-linecap="round"/><circle cx="256" cy="256" r="18" fill="#FFFFFF"/><path d="M216 408H296" stroke="#99F6E4" stroke-width="18" stroke-linecap="round"/></svg>