<svg xmlns="http://www.w3.org/2000/svg" viewBox="0 0 256 256" role="img" aria-label="Electrical engineering systems purple white icon">
  <defs><linearGradient id="b" x1="0" y1="0" x2="1" y2="1"><stop stop-color="#fff"/><stop offset="1" stop-color="#eadcff"/></linearGradient><linearGradient id="p" x1="50" y1="48" x2="210" y2="210"><stop stop-color="#c084fc"/><stop offset="1" stop-color="#5b21b6"/></linearGradient><filter id="s"><feDropShadow dx="0" dy="10" stdDeviation="12" flood-color="#4c1d95" flood-opacity=".22"/></filter></defs>
  <rect width="256" height="256" rx="56" fill="url(#b)"/><circle cx="209" cy="49" r="30" fill="#fff" opacity=".7"/>
  <g filter="url(#s)"><rect x="47" y="47" width="162" height="162" rx="37" fill="#fff"/><path d="M128 71v114M84 128h88M84 128l-18-30M84 128l-18 30M172 128l18-30M172 128l18 30" fill="none" stroke="#c084fc" stroke-width="10" stroke-linecap="round" stroke-linejoin="round"/><path d="M113 141l23-68-2 46h28l-25 64 3-42h-27Z" fill="url(#p)"/><circle cx="128" cy="71" r="11" fill="#5b21b6"/><circle cx="66" cy="98" r="9" fill="#8b5cf6"/><circle cx="190" cy="98" r="9" fill="#8b5cf6"/><circle cx="66" cy="158" r="9" fill="#8b5cf6"/><circle cx="190" cy="158" r="9" fill="#8b5cf6"/></g>
</svg>
