<svg xmlns="http://www.w3.org/2000/svg" viewBox="0 0 256 256" role="img" aria-label="arXiv taxonomy purple white icon">
  <defs>
    <linearGradient id="bg" x1="28" y1="18" x2="228" y2="238" gradientUnits="userSpaceOnUse">
      <stop offset="0" stop-color="#ffffff"/>
      <stop offset="0.55" stop-color="#f4edff"/>
      <stop offset="1" stop-color="#e9ddff"/>
    </linearGradient>
    <linearGradient id="ink" x1="58" y1="52" x2="210" y2="206" gradientUnits="userSpaceOnUse">
      <stop offset="0" stop-color="#a855f7"/>
      <stop offset="1" stop-color="#5b21b6"/>
    </linearGradient>
    <filter id="shadow" x="-20%" y="-20%" width="140%" height="140%">
      <feDropShadow dx="0" dy="10" stdDeviation="12" flood-color="#4c1d95" flood-opacity="0.22"/>
    </filter>
  </defs>
  <rect width="256" height="256" rx="58" fill="url(#bg)"/>
  <circle cx="205" cy="49" r="31" fill="#ffffff" opacity="0.7"/>
  <circle cx="48" cy="211" r="36" fill="#d8b4fe" opacity="0.35"/>
  <g filter="url(#shadow)">
    <rect x="44" y="44" width="168" height="168" rx="36" fill="#ffffff" opacity="0.96"/>
    <path d="M128 62v42M84 128h88M84 128l-22 40M172 128l22 40M128 104l-44 24 44 24 44-24-44-24Z" fill="none" stroke="url(#ink)" stroke-width="11" stroke-linecap="round" stroke-linejoin="round"/>
    <circle cx="128" cy="62" r="16" fill="url(#ink)"/>
    <circle cx="84" cy="128" r="16" fill="#7c3aed"/>
    <circle cx="172" cy="128" r="16" fill="#6d28d9"/>
    <circle cx="62" cy="168" r="16" fill="#8b5cf6"/>
    <circle cx="194" cy="168" r="16" fill="#5b21b6"/>
  </g>
</svg>
